<?xml version="1.0" encoding="UTF-8" standalone="no"?>
<svg width="53px" height="51px" viewBox="0 0 53 51" version="1.1" xmlns="http://www.w3.org/2000/svg" xmlns:xlink="http://www.w3.org/1999/xlink">
    <!-- Generator: Sketch 46 (44423) - http://www.bohemiancoding.com/sketch -->
    <title>Icon/Cryptocurrency/Bitcoin</title>
    <desc>Created with Sketch.</desc>
    <defs></defs>
    <g id="Cryptab" stroke="none" stroke-width="1" fill="none" fill-rule="evenodd">
        <g id="Cryptab-Desktop-Copy" transform="translate(-418.000000, -1482.000000)" fill="#999999">
            <g id="Content" transform="translate(299.000000, 145.000000)">
                <g id="Ranking-08" transform="translate(0.000000, 1297.000000)">
                    <g id="Group-2" transform="translate(115.000000, 35.000000)">
                        <g id="Icon/Cryptocurrency/iota" transform="translate(0.000000, 1.000000)">
                            <g id="IOTA" transform="translate(3.000000, 4.000000)">
                                <circle id="Oval" fill-rule="nonzero" cx="31.8593882" cy="30.5858017" r="1.39843882"></circle>
                                <circle id="Oval" fill-rule="nonzero" cx="34.98" cy="27.6803165" r="1.50704641"></circle>
                                <circle id="Oval" fill-rule="nonzero" cx="37.6413502" cy="23.5666878" r="1.72565401"></circle>
                                <circle id="Oval" fill-rule="nonzero" cx="39.3670042" cy="17.9875527" r="2.47546414"></circle>
                                <circle id="Oval" fill-rule="nonzero" cx="40.3214979" cy="11.2074684" r="2.68014768"></circle>
                                <circle id="Oval" fill-rule="nonzero" cx="39.5716878" cy="3.33527426" r="3.31415612"></circle>
                                <circle id="Oval" fill-rule="nonzero" transform="translate(35.223588, 33.481693) rotate(-76.597417) translate(-35.223588, -33.481693) " cx="35.223588" cy="33.4816935" r="1.19843921"></circle>
                                <circle id="Oval" fill-rule="nonzero" transform="translate(38.402419, 31.679581) rotate(-76.597417) translate(-38.402419, -31.679581) " cx="38.4024192" cy="31.6795805" r="1.29150159"></circle>
                                <circle id="Oval" fill-rule="nonzero" transform="translate(41.437874, 28.779070) rotate(-76.597417) translate(-41.437874, -28.779070) " cx="41.4378735" cy="28.7790696" r="1.47878673"></circle>
                                <circle id="Oval" fill-rule="nonzero" transform="translate(43.984205, 24.470354) rotate(-76.597417) translate(-43.984205, -24.470354) " cx="43.9842048" cy="24.4703541" r="2.1214045"></circle>
                                <circle id="Oval" fill-rule="nonzero" transform="translate(46.126950, 19.008421) rotate(-76.597417) translate(-46.126950, -19.008421) " cx="46.12695" cy="19.008421" r="2.29685378"></circle>
                                <circle id="Oval" fill-rule="nonzero" transform="translate(47.065550, 12.296881) rotate(-76.597417) translate(-47.065550, -12.296881) " cx="47.0655503" cy="12.2968809" r="2.8403752"></circle>
                                <ellipse id="Oval" fill-rule="nonzero" transform="translate(38.086776, 36.468166) rotate(-64.475318) translate(-38.086776, -36.468166) " cx="38.0867765" cy="36.4681661" rx="1.01251084" ry="1.01227877"></ellipse>
                                <circle id="Oval" fill-rule="nonzero" transform="translate(41.032059, 35.543316) rotate(-64.475318) translate(-41.032059, -35.543316) " cx="41.032059" cy="35.5433158" r="1.09118175"></circle>
                                <circle id="Oval" fill-rule="nonzero" transform="translate(44.054145, 33.686719) rotate(-64.475318) translate(-44.054145, -33.686719) " cx="44.0541446" cy="33.6867193" r="1.24921977"></circle>
                                <circle id="Oval" fill-rule="nonzero" transform="translate(46.921827, 30.579866) rotate(-64.475318) translate(-46.921827, -30.579866) " cx="46.9218267" cy="30.5798655" r="1.79202583"></circle>
                                <circle id="Oval" fill-rule="nonzero" transform="translate(49.660251, 26.447865) rotate(-64.475318) translate(-49.660251, -26.447865) " cx="49.6602514" cy="26.447865" r="1.94031701"></circle>
                                <circle id="Oval" fill-rule="nonzero" transform="translate(51.626083, 21.070872) rotate(-64.475318) translate(-51.626083, -21.070872) " cx="51.6260833" cy="21.0708718" r="2.39934668"></circle>
                                <circle id="Oval" fill-rule="nonzero" transform="translate(32.162199, 20.499206) rotate(-30.000728) translate(-32.162199, -20.499206) " cx="32.1621987" cy="20.4992059" r="1.39840805"></circle>
                                <circle id="Oval" fill-rule="nonzero" transform="translate(28.085734, 19.249505) rotate(-30.000728) translate(-28.085734, -19.249505) " cx="28.0857342" cy="19.2495048" r="1.50701326"></circle>
                                <circle id="Oval" fill-rule="nonzero" transform="translate(23.192774, 19.001892) rotate(-30.000728) translate(-23.192774, -19.001892) " cx="23.1927741" cy="19.0018915" r="1.72561604"></circle>
                                <circle id="Oval" fill-rule="nonzero" transform="translate(17.498369, 20.297001) rotate(-30.000728) translate(-17.498369, -20.297001) " cx="17.4983693" cy="20.2970014" r="2.47540967"></circle>
                                <circle id="Oval" fill-rule="nonzero" transform="translate(11.149599, 22.860427) rotate(-30.000728) translate(-11.149599, -22.860427) " cx="11.1495991" cy="22.8604274" r="2.68008872"></circle>
                                <circle id="Oval" fill-rule="nonzero" transform="translate(4.707105, 27.445709) rotate(-30.000728) translate(-4.707105, -27.445709) " cx="4.70710515" cy="27.4457087" r="3.31408321"></circle>
                                <circle id="Oval" fill-rule="nonzero" transform="translate(32.989025, 16.138685) rotate(-16.595517) translate(-32.989025, -16.138685) " cx="32.9890252" cy="16.138685" r="1.19834045"></circle>
                                <circle id="Oval" fill-rule="nonzero" transform="translate(29.839022, 14.287065) rotate(-16.595517) translate(-29.839022, -14.287065) " cx="29.8390216" cy="14.2870649" r="1.29139516"></circle>
                                <circle id="Oval" fill-rule="nonzero" transform="translate(25.809614, 13.108313) rotate(-16.595517) translate(-25.809614, -13.108313) " cx="25.809614" cy="13.1083134" r="1.47866486"></circle>
                                <circle id="Oval" fill-rule="nonzero" transform="translate(20.805323, 13.056474) rotate(-16.595517) translate(-20.805323, -13.056474) " cx="20.8053235" cy="13.0564745" r="2.12122967"></circle>
                                <circle id="Oval" fill-rule="nonzero" transform="translate(15.003768, 13.931941) rotate(-16.595517) translate(-15.003768, -13.931941) " cx="15.0037677" cy="13.9319412" r="2.29666449"></circle>
                                <circle id="Oval" fill-rule="nonzero" transform="translate(8.722164, 16.474450) rotate(-16.595517) translate(-8.722164, -16.474450) " cx="8.72216354" cy="16.4744496" r="2.84014112"></circle>
                                <circle id="Oval" fill-rule="nonzero" transform="translate(34.144054, 12.168499) rotate(-4.473406) translate(-34.144054, -12.168499) " cx="34.1440536" cy="12.1684991" r="1.01232555"></circle>
                                <circle id="Oval" fill-rule="nonzero" transform="translate(31.870429, 10.080300) rotate(-4.473406) translate(-31.870429, -10.080300) " cx="31.8704295" cy="10.0803" r="1.09123217"></circle>
                                <circle id="Oval" fill-rule="nonzero" transform="translate(28.748352, 8.391059) rotate(-4.473853) translate(-28.748352, -8.391059) " cx="28.748352" cy="8.39105913" r="1.24915296"></circle>
                                <circle id="Oval" fill-rule="nonzero" transform="translate(24.624296, 7.460780) rotate(-4.473853) translate(-24.624296, -7.460780) " cx="24.6242963" cy="7.46077957" r="1.79192999"></circle>
                                <circle id="Oval" fill-rule="nonzero" transform="translate(19.677355, 7.154611) rotate(-4.473853) translate(-19.677355, -7.154611) " cx="19.6773554" cy="7.15461053" r="1.94021324"></circle>
                                <circle id="Oval" fill-rule="nonzero" transform="translate(14.038110, 8.140134) rotate(-4.473853) translate(-14.038110, -8.140134) " cx="14.0381096" cy="8.14013376" r="2.39921835"></circle>
                                <circle id="Oval" fill-rule="nonzero" transform="translate(23.326045, 25.603516) rotate(-59.999272) translate(-23.326045, -25.603516) " cx="23.3260454" cy="25.603516" r="1.39840805"></circle>
                                <circle id="Oval" fill-rule="nonzero" transform="translate(24.282000, 29.758773) rotate(-59.999272) translate(-24.282000, -29.758773) " cx="24.2820001" cy="29.758773" r="1.50701326"></circle>
                                <circle id="Oval" fill-rule="nonzero" transform="translate(26.513632, 34.120291) rotate(-59.999272) translate(-26.513632, -34.120291) " cx="26.5136319" cy="34.1202911" r="1.72561604"></circle>
                                <circle id="Oval" fill-rule="nonzero" transform="translate(30.482596, 38.404668) rotate(-59.999272) translate(-30.482596, -38.404668) " cx="30.4825957" cy="38.4046676" r="2.47540967"></circle>
                                <circle id="Oval" fill-rule="nonzero" transform="translate(35.876716, 42.621411) rotate(-59.999272) translate(-35.876716, -42.621411) " cx="35.8767158" cy="42.6214108" r="2.68008872"></circle>
                                <circle id="Oval" fill-rule="nonzero" transform="translate(43.069058, 45.908197) rotate(-59.999272) translate(-43.069058, -45.908197) " cx="43.0690584" cy="45.9081974" r="3.31408321"></circle>
                                <circle id="Oval" fill-rule="nonzero" transform="translate(19.134124, 27.066434) rotate(-46.596540) translate(-19.134124, -27.066434) " cx="19.1341239" cy="27.0664338" r="1.19834189"></circle>
                                <circle id="Oval" fill-rule="nonzero" transform="translate(19.105470, 30.720093) rotate(-46.596540) translate(-19.105470, -30.720093) " cx="19.1054703" cy="30.7200928" r="1.29139671"></circle>
                                <circle id="Oval" fill-rule="nonzero" transform="translate(20.099521, 34.798962) rotate(-46.596540) translate(-20.099521, -34.798962) " cx="20.0995207" cy="34.798962" r="1.47866664"></circle>
                                <circle id="Oval" fill-rule="nonzero" transform="translate(22.556917, 39.159049) rotate(-46.596540) translate(-22.556917, -39.159049) " cx="22.5569171" cy="39.1590493" r="2.12123223"></circle>
                                <circle id="Oval" fill-rule="nonzero" transform="translate(26.215795, 43.745630) rotate(-46.596540) translate(-26.215795, -43.745630) " cx="26.2157953" cy="43.7456298" r="2.29666726"></circle>
                                <circle id="Oval" fill-rule="nonzero" transform="translate(31.558465, 47.914503) rotate(-46.596540) translate(-31.558465, -47.914503) " cx="31.5584649" cy="47.9145033" r="2.84014454"></circle>
                                <ellipse id="Oval" fill-rule="nonzero" transform="translate(15.121170, 28.056208) rotate(-34.476655) translate(-15.121170, -28.056208) " cx="15.1211696" cy="28.0562082" rx="1.01256349" ry="1.01233141"></ellipse>
                                <circle id="Oval" fill-rule="nonzero" transform="translate(14.449575, 31.069105) rotate(-34.476655) translate(-14.449575, -31.069105) " cx="14.4495751" cy="31.0691046" r="1.09100641"></circle>
                                <circle id="Oval" fill-rule="nonzero" transform="translate(14.547211, 34.614730) rotate(-34.476655) translate(-14.547211, -34.614730) " cx="14.5472114" cy="34.6147298" r="1.24928472"></circle>
                                <circle id="Oval" fill-rule="nonzero" transform="translate(15.804028, 38.651662) rotate(-34.476655) translate(-15.804028, -38.651662) " cx="15.8040277" cy="38.6516617" r="1.79211901"></circle>
                                <circle id="Oval" fill-rule="nonzero" transform="translate(18.013064, 43.089097) rotate(-34.476655) translate(-18.013064, -43.089097) " cx="18.0130638" cy="43.0890971" r="1.9404179"></circle>
                                <circle id="Oval" fill-rule="nonzero" transform="translate(21.687071, 47.480002) rotate(-34.476655) translate(-21.687071, -47.480002) " cx="21.6870707" cy="47.4800022" r="2.39947144"></circle>
                            </g>
                        </g>
                    </g>
                </g>
            </g>
        </g>
    </g>
</svg>