<?xml version="1.0" encoding="UTF-8" standalone="no"?>
<svg width="50px" height="50px" viewBox="0 0 50 50" version="1.1" xmlns="http://www.w3.org/2000/svg" xmlns:xlink="http://www.w3.org/1999/xlink">
    <!-- Generator: Sketch 46 (44423) - http://www.bohemiancoding.com/sketch -->
    <title>Icon/Cryptocurrency/Bitcoin</title>
    <desc>Created with Sketch.</desc>
    <defs></defs>
    <g id="Cryptab" stroke="none" stroke-width="1" fill="none" fill-rule="evenodd">
        <g id="Cryptab-Desktop-Copy" transform="translate(-419.000000, -1326.000000)">
            <g id="Content" transform="translate(299.000000, 145.000000)">
                <g id="Ranking-07" transform="translate(0.000000, 1140.000000)">
                    <g id="Group-2" transform="translate(115.000000, 35.000000)">
                        <g id="Icon/Cryptocurrency/XEM" transform="translate(0.000000, 1.000000)">
                            <g id="XEM-alt" transform="translate(5.000000, 5.000000)">
                                <path d="M17.3127753,23.165859 C17.4220264,23.1063877 17.5193833,23.0511013 17.615859,22.9914097 C21.0319383,20.9409692 23.0740088,17.3572687 23.0909692,13.3949339 L23.0905286,13.364978 C23.0905286,7.90991189 25.9396476,3.04251101 30.5134361,0.39339207 C28.672385,0.19349573 26.8219151,0.0927628734 24.9700441,0.0916299559 C16.4577093,0.0916299559 7.98832599,2.2061674 0.476431718,6.2061674 C0.122907489,6.39427313 0.0986784141,6.43546256 0.0715859031,6.48325991 C0.0125550661,6.58524229 -0.00440528634,6.62290749 0.000881057269,6.80726872 C0.0914079475,9.78826775 0.437686691,12.7559923 1.03590308,15.6777533 C1.17213349,16.3357809 1.32105994,16.991116 1.48259912,17.6433921 C3.21145374,21.7927313 7.37511013,24.5770925 11.8592511,24.5770925 C13.7685022,24.5770925 15.6546256,24.0889868 17.3127753,23.165859 L17.3127753,23.165859 Z" id="Path" fill="#999999"></path>
                                <path d="M30.7359031,26.4189427 C30.6488506,26.3654793 30.5607269,26.31378 30.4715859,26.2638767 L30.3682819,26.204185 C28.7524229,25.3105727 26.8744493,24.8270925 24.9744493,24.8270925 C23.0645374,24.8270925 21.1856828,25.3105727 19.5407489,26.226652 C19.4277533,26.2969163 19.2784141,26.384141 19.1290749,26.464978 C16.9229075,27.6918502 14.4068282,28.3420705 11.8594714,28.3420705 C9.28480176,28.3420705 6.73237885,27.6555066 4.48061674,26.3795154 C8.65462555,35.7277533 15.5746696,43.7837004 24.1566079,49.2301762 C24.3621145,49.3614537 24.504185,49.4185022 25.0050661,49.4185022 C25.4585903,49.4185022 25.5689427,49.3726872 25.7914097,49.2321586 C28.1266965,47.7483897 30.3399513,46.08077 32.4101322,44.2451542 C32.9158725,43.794953 33.4127375,43.3348792 33.9004405,42.8651982 C35.3861233,40.910793 36.2037445,38.4962555 36.2037445,36.0592511 C36.203304,32.1312775 34.10837,28.4372247 30.7359031,26.4189427 L30.7359031,26.4189427 Z" id="Path" fill="#38E86C"></path>
                                <path d="M49.877533,6.48259912 C49.8508811,6.43678414 49.826652,6.39449339 49.4726872,6.20594714 C46.9676895,4.87198111 44.3577318,3.7452402 41.6689427,2.83700441 C41.0508696,2.62890391 40.4289545,2.43239371 39.8035242,2.24757709 C39.2351406,2.16023079 38.6609586,2.11605162 38.0859031,2.1154185 C31.9403084,2.1154185 26.9314978,7.0784141 26.8570485,13.2070485 L26.8570485,13.3508811 C26.8588106,17.3143172 28.885022,20.9063877 32.2790749,22.9605727 L32.3284141,22.9907489 C32.4321586,23.0469163 32.5625551,23.1213656 32.6845815,23.1955947 C37.1325991,25.8585903 39.9143172,30.7209251 39.9669604,35.9085903 C46.1063877,27.4491189 49.6334802,17.2011013 49.9471366,6.80330396 C49.9522026,6.62004405 49.938326,6.58788546 49.877533,6.48259912 L49.877533,6.48259912 Z" id="Path" fill="#F1A044"></path>
                            </g>
                        </g>
                    </g>
                </g>
            </g>
        </g>
    </g>
</svg>