<?xml version="1.0" encoding="UTF-8" standalone="no"?>
<svg width="50px" height="53px" viewBox="0 0 50 53" version="1.1" xmlns="http://www.w3.org/2000/svg" xmlns:xlink="http://www.w3.org/1999/xlink">
    <!-- Generator: Sketch 46 (44423) - http://www.bohemiancoding.com/sketch -->
    <title>Icon/Cryptocurrency/Bitcoin</title>
    <desc>Created with Sketch.</desc>
    <defs></defs>
    <g id="Cryptab" stroke="none" stroke-width="1" fill="none" fill-rule="evenodd">
        <g id="Cryptab-Desktop-Copy" transform="translate(-419.000000, -499.000000)" fill-rule="nonzero" fill="#4182F5">
            <g id="Content" transform="translate(299.000000, 145.000000)">
                <g id="Ranking-03" transform="translate(0.000000, 314.000000)">
                    <g id="Icon/Crpytocurrency/XRP2" transform="translate(115.000000, 36.000000)">
                        <path d="M53.5504179,51.4359618 C50.5098795,56.6996379 43.6815692,58.5558157 38.2998369,55.5825208 C32.9176918,52.6092259 31.019471,45.9314776 34.0608351,40.6673856 C35.3274165,38.4747418 34.5368352,35.6931785 32.2938963,34.4533698 C30.0827458,33.2318609 27.2853679,33.9684262 25.9936035,36.0924459 L25.9927778,36.0924459 L25.9927778,36.0837119 C25.974613,36.1161524 25.9585124,36.148177 25.9399348,36.1802016 C22.8993964,41.4438776 16.071499,43.3004713 10.6897667,40.3267606 C5.30720869,37.3534657 3.40898798,30.6748855 6.44952637,25.4124572 C9.49089044,20.1483652 16.318375,18.2921874 21.7013458,21.2663141 C23.500073,22.2603237 24.9070187,23.6698211 25.873881,25.3005791 L25.873881,25.2947565 L25.8747067,25.2939247 C27.2155986,27.3867516 30.0257744,28.0613473 32.2080264,26.7924254 C34.4216539,25.5052037 35.1494841,22.7065883 33.8329495,20.5413941 C30.67434,15.3450945 32.4210498,8.62783529 37.7346642,5.5389192 C43.0474529,2.4495872 49.9158082,4.15770332 53.0752434,9.35358709 C56.233853,14.5503027 54.4879688,21.2671459 49.1735288,24.3564779 C47.453638,25.3559777 45.504432,25.8855729 43.5189118,25.8928259 L43.5238658,25.8949054 L43.5238658,25.8957372 C40.9746025,25.9818292 38.9492282,28.0422157 38.9797781,30.5501145 C39.0099151,33.0912855 41.1426268,35.1283814 43.7410176,35.0984363 L43.724917,35.1071703 C45.6766822,35.0892942 47.6003442,35.5763249 49.3118289,36.5216584 C54.6927356,39.4957851 56.5909563,46.1731176 53.5504179,51.4359618 L53.5504179,51.4359618 Z" id="Shape"></path>
                    </g>
                </g>
            </g>
        </g>
    </g>
</svg>