<?xml version="1.0" encoding="UTF-8" standalone="no"?>
<svg width="55px" height="48px" viewBox="0 0 55 48" version="1.1" xmlns="http://www.w3.org/2000/svg" xmlns:xlink="http://www.w3.org/1999/xlink">
    <!-- Generator: Sketch 46 (44423) - http://www.bohemiancoding.com/sketch -->
    <title>Icon/Cryptocurrency/Bitcoin</title>
    <desc>Created with Sketch.</desc>
    <defs></defs>
    <g id="Cryptab" stroke="none" stroke-width="1" fill="none" fill-rule="evenodd">
        <g id="Cryptab-Desktop-Copy" transform="translate(-417.000000, -1798.000000)" fill="#5B6BC6">
            <g id="Content" transform="translate(299.000000, 145.000000)">
                <g id="Ranking-10" transform="translate(0.000000, 1611.000000)">
                    <g id="Group-2" transform="translate(115.000000, 35.000000)">
                        <g id="Icon/Cryptocurrency/Strat" transform="translate(0.000000, 1.000000)">
                            <g id="STRAT" transform="translate(3.000000, 6.000000)">
                                <path d="M53.842047,24.0221965 C53.0613423,23.5537572 52.009052,23.590104 51.0273574,24.1179191 C50.8650336,24.2052254 28.4502265,36.7138035 27.5752097,37.2474451 C27.4137164,37.3457572 27.3329698,37.3956994 26.9940185,37.2101734 C26.6263674,37.0092948 4.15508389,24.4266358 3.67069631,24.1596301 C3.45669463,24.0412486 3.17209732,23.8303815 3.17209732,23.3661965 L3.17209732,19.6114682 C8.87963926,22.8189595 24.7767617,31.753896 25.5879195,32.2096647 C26.1158641,32.5067283 26.712005,32.6638613 27.3118372,32.6638613 C27.9308641,32.6638613 28.5576426,32.4966474 29.1257299,32.1812717 C33.8169715,29.5732717 52.9463591,18.9415029 53.5244128,18.6203006 C54.390755,18.1390058 54.9244211,17.2724162 54.916854,16.3587514 C54.9097483,15.4997457 54.4296057,14.7322081 53.6319211,14.3058497 C53.168297,14.0579884 40.4849832,7.00568786 28.7701678,0.488046243 C28.2975,0.225479769 27.803146,0.0916531792 27.300948,0.0916531792 C26.8373334,0.0915553516 26.3814577,0.210751603 25.9769799,0.43782659 C17.7142211,5.0812635 9.45160926,9.72496292 1.1891443,14.3689249 C0.443691275,14.7878844 -0.00101510067,15.5561618 2.11758237e-22,16.4243237 C2.11758237e-22,16.4274682 0.000553691275,16.4301503 0.000553691275,16.4330173 L2.11758237e-22,16.4330173 L2.11758237e-22,23.366104 C2.11758237e-22,24.8902659 0.78079698,26.1944971 2.14223154,26.9446474 C2.61720638,27.2070289 25.0936577,39.7922775 25.475797,40.0010173 C27.0822399,40.8788902 28.4003943,40.4656647 29.222349,39.9643006 C29.7437416,39.6493873 47.6427349,29.6278382 51.7447567,27.3511214 L51.7447567,30.8338497 C51.7447567,30.8763931 51.7447567,31.0052254 51.132005,31.3920925 C50.3376426,31.8846705 28.8105872,44.0173873 27.7924413,44.5703584 C27.3570554,44.8070289 27.3030705,44.7753988 27.1242282,44.6724624 C26.3499832,44.2266821 2.83360738,30.9883931 1.8328104,30.4247861 L0.279337248,33.1968555 C0.524253356,33.3351214 24.7831292,46.9912601 25.5442701,47.4292717 C26.1860906,47.7988439 26.7845386,47.9344277 27.3264178,47.9344277 C28.1219799,47.9344277 28.7948993,47.6416185 29.3033725,47.3656416 C29.4804614,47.2694566 51.936703,34.6421272 52.8214094,34.0827746 C53.3944799,33.7211561 54.9169463,32.7590289 54.9169463,30.8339422 L54.9169463,26.032185 C54.916854,25.1646705 54.525302,24.431815 53.842047,24.0221965 L53.842047,24.0221965 Z M27.3298322,3.3222659 C32.3182215,6.0979422 46.6141611,14.0504971 50.9155117,16.4353295 C46.733297,18.7592139 31.6763087,27.1281387 27.5873909,29.4006936 C27.4175,29.4948439 27.2755705,29.5132486 27.1400084,29.4370405 C26.2912919,28.9597225 8.9435906,19.209526 4.00180369,16.4330173 C8.51780201,13.894659 23.7214262,5.34991908 27.3298322,3.3222659 Z" id="Shape" fill-rule="nonzero"></path>
                            </g>
                        </g>
                    </g>
                </g>
            </g>
        </g>
    </g>
</svg>