<?xml version="1.0" encoding="UTF-8" standalone="no"?>
<svg width="60px" height="60px" viewBox="0 0 60 60" version="1.1" xmlns="http://www.w3.org/2000/svg" xmlns:xlink="http://www.w3.org/1999/xlink">
    <!-- Generator: Sketch 46 (44423) - http://www.bohemiancoding.com/sketch -->
    <title>Icon/Cryptocurrency/Bitcoin</title>
    <desc>Created with Sketch.</desc>
    <defs></defs>
    <g id="Cryptab" stroke="none" stroke-width="1" fill="none" fill-rule="evenodd">
        <g id="Cryptab-Desktop-Copy" transform="translate(-414.000000, -181.000000)">
            <g id="Content" transform="translate(299.000000, 145.000000)">
                <g id="Ranking-01">
                    <g id="Group-5" transform="translate(80.000000, 0.000000)">
                        <g id="Group-3" transform="translate(35.000000, 35.000000)">
                            <g id="Icon/Cryptocurrency/BTC" transform="translate(0.000000, 1.000000)">
                                <g id="BTC">
                                    <circle id="Oval-2" fill="#FFFFFF" cx="30" cy="30" r="26"></circle>
                                    <path d="M29.9770044,0 C13.4212335,0 0,13.4209692 0,29.9770044 C0,46.5327753 13.4212335,59.9540088 29.9770044,59.9540088 C46.5327753,59.9540088 59.9534802,46.5327753 59.9534802,29.9770044 C59.9534802,13.4209692 46.5327753,0 29.9770044,0 Z M42.1826432,41.4388546 C39.9518062,42.9948899 37.5663436,43.2718943 36.5117181,43.4096035 C35.9912775,43.4780617 35.0997357,43.5502203 34.1437004,43.6062555 L34.1437004,49.6162996 L30.4437885,49.6162996 L30.4437885,43.7035242 L27.6261674,43.7035242 L27.6261674,49.6162996 L23.9265198,49.6162996 L23.9265198,43.7035242 L16.6485463,43.7035242 L17.4089868,39.2598238 L19.6215859,39.2598238 C20.3653744,39.2598238 20.6759471,39.190837 20.9870485,38.8971806 C21.2981498,38.6029956 21.3674009,38.1539207 21.3674009,37.7902203 L21.3674009,22.4820264 C21.3674009,21.5230837 21.2894273,21.2635242 20.8485463,20.7711013 C20.4076652,20.2776211 19.3707489,20.2128634 18.7868722,20.2128634 L16.6482819,20.2128634 L16.6482819,16.3715419 L23.9262555,16.3715419 L23.9262555,10.4418502 L27.6256388,10.4418502 L27.6256388,16.3715419 L30.4432599,16.3715419 L30.4432599,10.4418502 L34.1431718,10.4418502 L34.1431718,16.4426432 C36.9013216,16.6136564 38.9545374,17.1391189 40.7466079,18.463348 C43.0636123,20.1748018 42.9420264,23.1481057 42.8902203,23.8570044 C42.8386784,24.5659031 42.5275771,25.9318943 41.9045815,26.8128634 C41.2829075,27.6948899 39.7614978,28.576652 39.7614978,28.576652 C39.7614978,28.576652 41.5591189,28.9567401 42.8217621,29.9077533 C44.0828194,30.8587665 45.0174449,32.5353304 44.9643172,34.9903084 C44.9135683,37.4452863 44.4124229,39.8830837 42.1826432,41.4388546 Z M35.8718062,32.3111894 C35.1808811,31.9649339 33.6417621,31.4986784 31.8097797,31.3773568 C29.9770044,31.2562996 27.6261674,31.3773568 27.6261674,31.3773568 L27.6261674,39.3121586 C27.6261674,39.3121586 30.0808811,39.3644934 31.7238767,39.2434361 C33.3652863,39.1223789 35.0598238,38.7076652 35.9069604,38.2403524 C36.7535683,37.7735683 37.7738326,37.047489 37.7738326,35.2326872 C37.7738326,33.4170925 36.5635242,32.6569163 35.8718062,32.3111894 L35.8718062,32.3111894 Z M30.7030837,27.6948899 C32.0521586,27.6428194 33.4868722,27.3319824 34.5232599,26.7613216 C35.5607048,26.1909251 36.1482819,25.292511 36.1144493,23.9437004 C36.0790308,22.5951542 35.1808811,21.4543612 33.6597357,20.9870485 C32.1380617,20.5202643 31.1188546,20.4856388 29.9598238,20.4684581 C28.8015859,20.4515419 27.6259031,20.5551542 27.6259031,20.5551542 L27.6259031,27.6948899 C27.6261674,27.6948899 29.3548018,27.7469604 30.7030837,27.6948899 L30.7030837,27.6948899 Z" id="Shape" fill="#F1A044" fill-rule="nonzero"></path>
                                </g>
                            </g>
                        </g>
                    </g>
                </g>
            </g>
        </g>
    </g>
</svg>