<?xml version="1.0" encoding="UTF-8" standalone="no"?>
<svg width="54px" height="32px" viewBox="0 0 54 32" version="1.1" xmlns="http://www.w3.org/2000/svg" xmlns:xlink="http://www.w3.org/1999/xlink">
    <!-- Generator: Sketch 46 (44423) - http://www.bohemiancoding.com/sketch -->
    <title>Icon/Cryptocurrency/Bitcoin</title>
    <desc>Created with Sketch.</desc>
    <defs></defs>
    <g id="Cryptab" stroke="none" stroke-width="1" fill="none" fill-rule="evenodd">
        <g id="Cryptab-Desktop-Copy" transform="translate(-417.000000, -1178.000000)" fill="#5B6BC6">
            <g id="Content" transform="translate(299.000000, 145.000000)">
                <g id="Ranking-06" transform="translate(0.000000, 983.000000)">
                    <g id="Group-2" transform="translate(115.000000, 35.000000)">
                        <g id="Icon/Cryptocurrency/Dash" transform="translate(0.000000, 1.000000)">
                            <g id="DASH" transform="translate(3.000000, 14.000000)">
                                <polygon id="Path" points="3.1549106 12.4574501 22.5093807 12.4574501 20.269759 19.7364343 0.916144079 19.7364343"></polygon>
                                <path d="M53.2954133,9.02447525 C52.5253563,11.8062581 50.0219228,20.1511791 48.9944675,23.1108318 C47.9682949,26.0704846 46.0745789,28.5555325 43.6472532,29.976354 C41.220355,31.3971754 40.313475,31.9910728 36.9211195,31.9910728 L2.18902565,31.9910728 L4.63516455,24.0630345 L37.2995206,24.0630345 L42.1798264,8.19626846 L9.77415133,8.19626846 L12.2207178,0.268657683 L48.3834672,0.268657683 C50.0403084,0.268657683 52.2299041,1.03486655 53.2954133,3.10730759 C54.3604949,5.17718321 54.0646152,6.24269241 53.2954133,9.02447525 L53.2954133,9.02447525 Z" id="Path"></path>
                            </g>
                        </g>
                    </g>
                </g>
            </g>
        </g>
    </g>
</svg>