<?xml version="1.0" encoding="UTF-8" standalone="no"?>
<svg width="60px" height="60px" viewBox="0 0 60 60" version="1.1" xmlns="http://www.w3.org/2000/svg" xmlns:xlink="http://www.w3.org/1999/xlink">
    <!-- Generator: Sketch 46 (44423) - http://www.bohemiancoding.com/sketch -->
    <title>Icon/Cryptocurrency/Bitcoin</title>
    <desc>Created with Sketch.</desc>
    <defs></defs>
    <g id="Cryptab" stroke="none" stroke-width="1" fill="none" fill-rule="evenodd">
        <g id="Cryptab-Desktop-Copy" transform="translate(-414.000000, -818.000000)">
            <g id="Content" transform="translate(299.000000, 145.000000)">
                <g id="Ranking-04" transform="translate(0.000000, 637.000000)">
                    <g id="Group-2" transform="translate(115.000000, 35.000000)">
                        <g id="Icon/Crpytocurrency/LTC" transform="translate(0.000000, 1.000000)">
                            <g id="LTC">
                                <circle id="Oval-2" fill="#FFFFFF" cx="30" cy="30" r="26"></circle>
                                <path d="M29.9844053,0 C13.4244053,0 0,13.4246696 0,29.9849339 C0,46.5454626 13.4244053,59.9693392 29.9844053,59.9693392 C46.5449339,59.9693392 59.9693392,46.5454626 59.9693392,29.9849339 C59.9696035,13.4246696 46.5451982,0 29.9844053,0 Z M41.6238767,44.606696 L18.1953304,44.606696 L20.1644934,35.2059912 L16.3355947,37.8314537 L17.2657269,32.6870485 L21.2703965,29.9302203 L25.1986784,11.1798238 L32.5125991,11.1798238 L29.8081057,24.0547137 L39.3303965,17.5012335 L38.2144493,22.8317181 L28.6937445,29.3585022 L26.8102203,38.3267841 L42.9251101,38.3267841 L41.6238767,44.606696 Z" id="Shape" fill="#999999" fill-rule="nonzero"></path>
                            </g>
                        </g>
                    </g>
                </g>
            </g>
        </g>
    </g>
</svg>