<?xml version="1.0" encoding="UTF-8" standalone="no"?>
<svg width="60px" height="60px" viewBox="0 0 60 60" version="1.1" xmlns="http://www.w3.org/2000/svg" xmlns:xlink="http://www.w3.org/1999/xlink">
    <!-- Generator: Sketch 46 (44423) - http://www.bohemiancoding.com/sketch -->
    <title>Icon/Cryptocurrency/Bitcoin</title>
    <desc>Created with Sketch.</desc>
    <defs></defs>
    <g id="Cryptab" stroke="none" stroke-width="1" fill="none" fill-rule="evenodd">
        <g id="Cryptab-Desktop-Copy" transform="translate(-414.000000, -1635.000000)">
            <g id="Content" transform="translate(299.000000, 145.000000)">
                <g id="Ranking-09" transform="translate(0.000000, 1454.000000)">
                    <g id="Group-2" transform="translate(115.000000, 35.000000)">
                        <g id="Icon/Cryptocurrency/XMR" transform="translate(0.000000, 1.000000)">
                            <g id="XMR">
                                <path d="M10.499207,39.3888106 L10.499207,14.2390308 L29.9902203,33.7300441 L49.4622026,14.2580617 L49.4622026,39.3890749 L58.4320705,39.3890749 C59.4341874,36.3540935 59.9436378,33.1781716 59.9410573,29.9820264 C59.9410573,13.4357709 46.5280176,0.0224669604 29.9814978,0.0224669604 C13.4352423,0.0224669604 0.021938326,13.4357709 0.021938326,29.9820264 C0.021938326,33.2688106 0.552687225,36.4303084 1.53092511,39.3890749 L10.499207,39.3890749 L10.499207,39.3888106 Z" id="Shape" fill="#F1A044" fill-rule="nonzero"></path>
                                <path d="M42.9621145,45.4829075 L42.9621145,29.5837004 L29.8797357,42.6660793 L16.8890749,29.6754185 L16.8890749,45.4831718 L4.33929515,45.4831718 C9.58969163,54.1490749 19.1090749,59.9413216 29.9814978,59.9413216 C40.854185,59.9413216 50.373304,54.1490749 55.6237004,45.4831718 L42.9621145,45.4831718 L42.9621145,45.4829075 Z" id="Shape" fill="#999999" fill-rule="nonzero"></path>
                            </g>
                        </g>
                    </g>
                </g>
            </g>
        </g>
    </g>
</svg>